Coordinates
version=1
nRows=9
nColumns=63
inDegrees=yes

Units are S.I. units (second, meters, Newtons, ...)
If the header above contains a line with 'inDegrees', this indicates whether rotational values are in degrees (yes) or radians (no).

endheader
time	pelvis_tilt	pelvis_list	pelvis_rotation	pelvis_tx	pelvis_ty	pelvis_tz	hip_flexion_r	hip_adduction_r	hip_rotation_r	knee_angle_r	knee_angle_r_beta	ankle_angle_r	subtalar_angle_r	mtp_angle_r	hip_flexion_l	hip_adduction_l	hip_rotation_l	knee_angle_l	knee_angle_l_beta	ankle_angle_l	subtalar_angle_l	mtp_angle_l	L5_S1_Flex_Ext	L5_S1_Lat_Bending	L5_S1_axial_rotation	L4_L5_Flex_Ext	L4_L5_Lat_Bending	L4_L5_axial_rotation	L3_L4_Flex_Ext	L3_L4_Lat_Bending	L3_L4_axial_rotation	L2_L3_Flex_Ext	L2_L3_Lat_Bending	L2_L3_axial_rotation	L1_L2_Flex_Ext	L1_L2_Lat_Bending	L1_L2_axial_rotation	L1_T12_Flex_Ext	L1_T12_Lat_Bending	L1_T12_axial_rotation	Abs_r3	Abs_r2	Abs_r1	Abs_t1	Abs_t2	neck_flexion	neck_bending	neck_rotation	arm_flex_r	arm_add_r	arm_rot_r	elbow_flex_r	pro_sup_r	wrist_flex_r	wrist_dev_r	arm_flex_l	arm_add_l	arm_rot_l	elbow_flex_l	pro_sup_l	wrist_flex_l	wrist_dev_l
      3.89200000	    -38.60715362	      1.21842440	     -1.30605198	     -0.15689563	      1.02693035	      0.04153944	     96.21759670	     -5.96640282	      3.08552745	    109.33908080	      1.90832696	     -1.82089336	    -15.84457593	      0.00000000	     87.87432235	     -6.03847033	     -1.89256344	     58.37823401	      1.01889239	      2.04741424	    -12.18564342	      0.00000000	     -0.07017759	     -0.25498273	      0.20044623	     -0.13032681	     -0.33912704	      0.21297412	     -0.11529477	     -0.61996502	      0.21297412	     -0.08020597	     -0.61996502	      0.17539045	     -0.06516691	     -0.51996079	      0.16286256	     -0.04009948	     -0.39496826	      0.15033467	     -0.50127153	     -2.88441569	      1.11482179	      0.00000000	      0.00000000	      0.00000000	      0.00000000	      0.00000000	     66.00961683	    -11.29727642	     20.38709360	     38.13494705	     63.51813604	      0.00000000	      4.99994036	     68.25363137	    -13.78150001	     14.61267922	     35.93807996	     65.01584716	      0.00000000	      4.99994036
      3.90000000	    -38.55692709	      1.08196020	     -1.54784670	     -0.15676590	      1.02645030	      0.04151906	     97.17902495	     -5.65360619	      3.12914479	    110.52644571	      1.92905039	     -1.63399135	    -15.98810414	      0.00000000	     86.76407460	     -6.30076391	     -2.04158013	     57.09166505	      0.99643753	      1.85297759	    -11.95971960	      0.00000000	     -0.06986946	     -0.22322614	      0.23505876	     -0.12975457	     -0.29689077	      0.24974994	     -0.11478854	     -0.54275204	      0.24974994	     -0.07985381	     -0.54275204	      0.20567642	     -0.06488078	     -0.45520275	      0.19098525	     -0.03992341	     -0.34577729	      0.17629407	     -0.49907056	     -2.52517876	      1.30732633	      0.00000000	      0.00000000	      0.00000000	      0.00000000	      0.00000000	     66.16549281	    -11.21600590	     20.59998826	     38.02326384	     63.56501732	      0.00000000	      4.99994080	     68.17877678	    -13.81421928	     14.55791728	     35.85380683	     65.03489171	      0.00000000	      4.99994080
      3.90800000	    -38.49907958	      1.24594511	     -1.71269507	     -0.15664608	      1.02588743	      0.04161738	     98.23668441	     -5.40918292	      3.49365853	    111.73432630	      1.95013188	     -1.30112193	    -16.04101707	      0.00000000	     85.55762552	     -6.50761271	     -2.61941558	     55.76205895	      0.97323153	      2.11088187	    -11.47554870	      0.00000000	     -0.06947660	     -0.23053926	      0.24683974	     -0.12902499	     -0.30661722	      0.26226722	     -0.11414310	     -0.56053316	      0.26226722	     -0.07940480	     -0.56053316	      0.21598477	     -0.06451597	     -0.47011566	      0.20055729	     -0.03969893	     -0.35710531	      0.18512980	     -0.49626440	     -2.60790621	      1.37284856	      0.00000000	      0.00000000	      0.00000000	      0.00000000	      0.00000000	     66.40729739	    -11.08819502	     21.25510997	     37.75467553	     63.71758839	      0.00000000	      4.99994238	     68.13284265	    -13.96406442	     14.43125695	     35.85904919	     65.10690152	      0.00000000	      4.99994238
      3.91700000	    -38.48193365	      0.98354142	     -1.97352164	     -0.15670102	      1.02532064	      0.04162355	     99.22182806	     -5.08997251	      3.38370634	    112.79821746	      1.96870029	     -0.99175909	    -16.09502684	      0.00000000	     84.60558015	     -6.82106733	     -2.59721080	     54.64031560	      0.95365341	      1.83466362	    -11.18923576	      0.00000000	     -0.06783836	     -0.18014032	      0.28574960	     -0.12598263	     -0.23958663	      0.30360895	     -0.11145165	     -0.43799318	      0.30360895	     -0.07753247	     -0.43799318	      0.25003090	     -0.06299471	     -0.36734215	      0.23217155	     -0.03876284	     -0.27903736	      0.21431220	     -0.48456265	     -2.03778337	      1.58925353	      0.00000000	      0.00000000	      0.00000000	      0.00000000	      0.00000000	     66.57106096	    -11.01907899	     21.34323696	     37.78054014	     63.74163070	      0.00000000	      4.99994272	     68.02500614	    -14.01754705	     14.43529594	     35.87390962	     65.12667190	      0.00000000	      4.99994272
      3.92500000	    -38.48414465	      0.75131082	     -2.16925698	     -0.15685537	      1.02491226	      0.04159902	    100.22082204	     -4.84057998	      3.28116604	    113.75870048	      1.98546388	     -0.55818542	    -16.10006275	      0.00000000	     83.59855466	     -7.09754197	     -2.69825604	     53.37994736	      0.93165584	      1.73215362	    -10.84118318	      0.00000000	     -0.06841018	     -0.13358607	      0.31534838	     -0.12704455	     -0.17766948	      0.33505765	     -0.11239109	     -0.32480118	      0.33505765	     -0.07818600	     -0.32480118	      0.27592983	     -0.06352570	     -0.27240872	      0.25622056	     -0.03908958	     -0.20692483	      0.23651128	     -0.48864710	     -1.51115237	      1.75387306	      0.00000000	      0.00000000	      0.00000000	      0.00000000	      0.00000000	     66.75533521	    -10.95275507	     21.47199162	     37.79108953	     63.77497965	      0.00000000	      4.99994314	     67.90762434	    -14.09631840	     14.42502146	     35.98227232	     65.14636474	      0.00000000	      4.99994314
      3.93300000	    -38.47967954	      0.50478604	     -2.31036244	     -0.15697605	      1.02426031	      0.04152825	    101.27111751	     -4.64149414	      3.18797236	    114.78230674	      2.00332918	     -0.15298606	    -16.13441629	      0.00000000	     82.75404528	     -7.34874412	     -2.77561945	     52.49082726	      0.91613776	      1.61424247	    -10.55748028	      0.00000000	     -0.06573069	     -0.08770224	      0.33627559	     -0.12206847	     -0.11664399	      0.35729281	     -0.10798896	     -0.21323924	      0.35729281	     -0.07512361	     -0.21323924	      0.29424114	     -0.06103752	     -0.17884242	      0.27322391	     -0.03755852	     -0.13585078	      0.25220669	     -0.46950778	     -0.99210534	      1.87026393	      0.00000000	      0.00000000	      0.00000000	      0.00000000	      0.00000000	     66.88892877	    -10.91249934	     21.55084364	     37.83272028	     63.79457310	      0.00000000	      4.99994339	     67.81858170	    -14.14322868	     14.41690968	     36.06893452	     65.15666232	      0.00000000	      4.99994339
      3.94200000	    -38.48998549	      0.52074067	     -2.29545805	     -0.15712189	      1.02394079	      0.04139041	    102.27770423	     -4.58371468	      3.36523066	    115.68256303	      2.01904161	      1.14760806	    -15.52921579	      0.00000000	     81.60492837	     -7.51353473	     -3.41308025	     51.11625469	      0.89214695	      2.55643294	     -8.94035009	      0.00000000	     -0.06796865	     -0.07695177	      0.32204095	     -0.12622458	     -0.10234585	      0.34216850	     -0.11166570	     -0.18710053	      0.34216850	     -0.07768137	     -0.18710053	      0.28178583	     -0.06311569	     -0.15692005	      0.26165827	     -0.03883729	     -0.11919829	      0.24153071	     -0.48549328	     -0.87049381	      1.79109512	      0.00000000	      0.00000000	      0.00000000	      0.00000000	      0.00000000	     67.11697213	    -10.94675791	     22.15090601	     37.89740544	     63.95607619	      0.00000000	      4.99994541	     67.60843522	    -14.34510108	     14.30699635	     36.56034912	     65.23999204	      0.00000000	      4.99994541
      3.95000000	    -38.51505723	      0.21537517	     -2.42334733	     -0.15737282	      1.02360976	      0.04109459	    103.29040579	     -4.41105231	      3.17315576	    116.46727464	      2.03273741	      1.49622297	    -15.49892291	      0.00000000	     80.75592302	     -7.76318826	     -3.50526737	     50.16713943	      0.87558176	      2.36673000	     -8.53864019	      0.00000000	     -0.06688073	     -0.02455207	      0.35294976	     -0.12420420	     -0.03265425	      0.37500911	     -0.10987835	     -0.05969590	      0.37500911	     -0.07643799	     -0.05969590	      0.30883104	     -0.06210545	     -0.05006658	      0.28677168	     -0.03821565	     -0.03803116	      0.26471232	     -0.47772237	     -0.27773792	      1.96300065	      0.00000000	      0.00000000	      0.00000000	      0.00000000	      0.00000000	     67.26006587	    -11.04053908	     22.18508684	     37.97314500	     63.97694268	      0.00000000	      4.99994583	     67.53547758	    -14.26827373	     14.33042933	     36.54441425	     65.26497644	      0.00000000	      4.99994583
      3.95800000	    -38.53630579	     -0.01740031	     -2.47770005	     -0.15761528	      1.02334257	      0.04064885	    104.28638959	     -4.33082890	      3.01975095	    117.19309981	      2.04540545	      1.99539266	    -15.50136310	      0.00000000	     79.89020627	     -7.93442772	     -3.73518319	     49.27307825	      0.85997745	      2.38646331	     -8.04069176	      0.00000000	     -0.06739967	      0.01691029	      0.37194862	     -0.12516793	      0.02249069	      0.39519541	     -0.11073092	      0.04111569	      0.39519541	     -0.07703109	      0.04111569	      0.32545504	     -0.06258734	      0.03448347	      0.30220825	     -0.03851217	      0.02619404	      0.27896146	     -0.48142912	      0.19129262	      2.06866664	      0.00000000	      0.00000000	      0.00000000	      0.00000000	      0.00000000	     67.37406583	    -11.20215239	     22.28624544	     38.11914109	     64.01001314	      0.00000000	      4.99994633	     67.48129552	    -14.18654220	     14.31659153	     36.54997949	     65.28931708	      0.00000000	      4.99994633
